<?xml version="1.0" encoding="UTF-8" standalone="no"?>
<!-- Created with Inkscape (http://www.inkscape.org/) -->
<svg
   xmlns:svg="http://www.w3.org/2000/svg"
   xmlns="http://www.w3.org/2000/svg"
   version="1.0"
   width="32"
   height="32"
   id="svg2474">
  <defs
     id="defs2477">
    <marker
       refX="0"
       refY="0"
       orient="auto"
       id="Arrow2Mend"
       style="overflow:visible">
      <path
         d="M 8.7185878,4.0337352 L -2.2072895,0.016013256 L 8.7185884,-4.0017078 C 6.97309,-1.6296469 6.9831476,1.6157441 8.7185878,4.0337352 z"
         transform="scale(-0.6,-0.6)"
         id="path10147"
         style="font-size:12px;fill-rule:evenodd;stroke-width:0.625;stroke-linejoin:round" />
    </marker>
    <marker
       refX="0"
       refY="0"
       orient="auto"
       id="Arrow2Mstart"
       style="overflow:visible">
      <path
         d="M 8.7185878,4.0337352 L -2.2072895,0.016013256 L 8.7185884,-4.0017078 C 6.97309,-1.6296469 6.9831476,1.6157441 8.7185878,4.0337352 z"
         transform="scale(0.6,0.6)"
         id="path10144"
         style="font-size:12px;fill-rule:evenodd;stroke-width:0.625;stroke-linejoin:round" />
    </marker>
    <marker
       refX="0"
       refY="0"
       orient="auto"
       id="Arrow1Mstart"
       style="overflow:visible">
      <path
         d="M 0,0 L 5,-5 L -12.5,0 L 5,5 L 0,0 z"
         transform="matrix(0.4,0,0,0.4,4,0)"
         id="path10126"
         style="fill-rule:evenodd;stroke:#000000;stroke-width:1pt;marker-start:none" />
    </marker>
    <marker
       refX="0"
       refY="0"
       orient="auto"
       id="Arrow1Lstart"
       style="overflow:visible">
      <path
         d="M 0,0 L 5,-5 L -12.5,0 L 5,5 L 0,0 z"
         transform="matrix(0.8,0,0,0.8,10,0)"
         id="path10120"
         style="fill-rule:evenodd;stroke:#000000;stroke-width:1pt;marker-start:none" />
    </marker>
  </defs>
  <path
     d="M 1.0472542,1.0472537 C 10.636065,1.0472537 22.947428,1.0472537 30.952745,1.0472537 C 30.952745,11.489868 30.952745,21.992634 30.952745,30.952745 C 20.853367,30.952745 11.075073,30.952745 1.0472542,30.952745 C 1.0472542,23.209573 1.0472542,11.336056 1.0472542,1.0472537 z"
     id="path2485"
     style="fill:none;fill-rule:evenodd;stroke:#000000;stroke-width:2.09450817;stroke-linecap:butt;stroke-linejoin:miter;marker-start:none;stroke-miterlimit:4;stroke-dasharray:2.09450817, 2.09450817;stroke-dashoffset:12.14814739;stroke-opacity:1" />
  <path
     d="M 5.2790474,5.1407943 L 27.23501,27.373262 L 27.23501,27.373262"
     id="path10115"
     style="fill:none;fill-rule:evenodd;stroke:#000000;stroke-width:1.00551879px;stroke-linecap:butt;stroke-linejoin:miter;marker-start:none;marker-mid:none;marker-end:none;stroke-opacity:1" />
  <path
     d="M 5.17977,5.0106713 L 6.6337407,10.008694 C 6.6337407,10.008694 7.3047148,8.3222842 7.8728946,7.6908672 C 8.4751675,7.0215626 10.268667,6.4646418 10.268667,6.4646418 L 5.17977,5.0106713 z"
     id="path14103"
     style="fill:#000000;fill-rule:evenodd;stroke:#000000;stroke-width:1px;stroke-linecap:butt;stroke-linejoin:miter;stroke-opacity:1" />
  <path
     d="M 27.398258,27.320032 L 25.944288,22.322009 C 25.944288,22.322009 25.273314,24.008419 24.705134,24.639836 C 24.102861,25.30914 22.309361,26.047807 22.309361,26.047807 L 27.398258,27.320032 z"
     id="path14105"
     style="fill:#000000;fill-rule:evenodd;stroke:#000000;stroke-width:1px;stroke-linecap:butt;stroke-linejoin:miter;stroke-opacity:1" />
</svg>
