<?xml version="1.0" encoding="utf-8"?>
<!-- Generator: Adobe Illustrator 14.0.0, SVG Export Plug-In  -->
<!DOCTYPE svg PUBLIC "-//W3C//DTD SVG 1.1//EN" "http://www.w3.org/Graphics/SVG/1.1/DTD/svg11.dtd" [
	<!ENTITY ns_flows "http://ns.adobe.com/Flows/1.0/">
]>
<svg version="1.1"
	 xmlns="http://www.w3.org/2000/svg" xmlns:xlink="http://www.w3.org/1999/xlink" xmlns:a="http://ns.adobe.com/AdobeSVGViewerExtensions/3.0/"
	 x="0px" y="0px" width="100px" height="100px" viewBox="-6.4 -0.1 100 100" enable-background="new -6.4 -0.1 100 100"
	 xml:space="preserve">
<defs>
</defs>
<path d="M4.8,99.4c-0.1,0.1,81-46.7,81-46.7c0.8-0.4,1.4-1.2,1.4-2.2v-0.7v-0.5c0-1-0.6-1.8-1.4-2.2c0,0-81.4-47-81.4-47
	C3.7-0.1,2.9-0.1,2.3,0.3l-1,0.6C0.5,1.3,0.1,2,0,2.8c0,0,0,0,0,0h0V97c0,0,0,0,0,0c0,0,0,0,0,0c0.1,0.8,0.5,1.5,1.2,1.9l1,0.6
	C3.1,99.9,4,99.9,4.8,99.4z"/>
</svg>
