<?xml version="1.0" encoding="UTF-8" standalone="no"?>
<!-- Created with Inkscape (http://www.inkscape.org/) -->
<svg
   xmlns:dc="http://purl.org/dc/elements/1.1/"
   xmlns:cc="http://creativecommons.org/ns#"
   xmlns:rdf="http://www.w3.org/1999/02/22-rdf-syntax-ns#"
   xmlns:svg="http://www.w3.org/2000/svg"
   xmlns="http://www.w3.org/2000/svg"
   xmlns:sodipodi="http://sodipodi.sourceforge.net/DTD/sodipodi-0.dtd"
   xmlns:inkscape="http://www.inkscape.org/namespaces/inkscape"
   id="svg7316"
   sodipodi:version="0.32"
   inkscape:version="0.46"
   width="32"
   height="32"
   version="1.0"
   sodipodi:docname="stop.svg"
   inkscape:output_extension="org.inkscape.output.svg.inkscape">
  <metadata
     id="metadata7321">
    <rdf:RDF>
      <cc:Work
         rdf:about="">
        <dc:format>image/svg+xml</dc:format>
        <dc:type
           rdf:resource="http://purl.org/dc/dcmitype/StillImage" />
      </cc:Work>
    </rdf:RDF>
  </metadata>
  <defs
     id="defs7319">
    <inkscape:perspective
       sodipodi:type="inkscape:persp3d"
       inkscape:vp_x="0 : 526.18109 : 1"
       inkscape:vp_y="0 : 1000 : 0"
       inkscape:vp_z="744.09448 : 526.18109 : 1"
       inkscape:persp3d-origin="372.04724 : 350.78739 : 1"
       id="perspective7323" />
  </defs>
  <sodipodi:namedview
     inkscape:window-height="789"
     inkscape:window-width="798"
     inkscape:pageshadow="2"
     inkscape:pageopacity="0.0"
     guidetolerance="10.0"
     gridtolerance="10.0"
     objecttolerance="10.0"
     borderopacity="1.0"
     bordercolor="#666666"
     pagecolor="#ffffff"
     id="base"
     showgrid="false"
     inkscape:zoom="1.3755437"
     inkscape:cx="16.595871"
     inkscape:cy="15.545368"
     inkscape:window-x="399"
     inkscape:window-y="84"
     inkscape:current-layer="svg7316" />
  <path
     style="fill:#161650;fill-rule:evenodd;stroke:#161650;stroke-width:1.97739208000000000;stroke-linecap:butt;stroke-linejoin:miter;stroke-miterlimit:4;stroke-dasharray:none;stroke-opacity:1"
     d="M 3.8966372,3.5331441 C 3.8966372,3.5331441 12.593222,5.0048662 16.356873,4.993797 C 19.907444,4.9833545 28.103363,3.54672 28.103363,3.54672 C 28.103363,3.54672 26.99167,12.444197 26.993494,16.278095 C 26.995235,19.937306 28.064353,28.428368 28.064353,28.428368 C 28.064353,28.428368 19.755834,27.355359 16.174392,27.356885 C 12.499064,27.358451 3.9736838,28.466855 3.9736838,28.466855 C 3.9736838,28.466855 5.2076783,20.016511 5.2073988,16.368047 C 5.2071023,12.497549 3.8966372,3.5331441 3.8966372,3.5331441 z"
     id="path7392"
     sodipodi:nodetypes="cscscscsc" />
  <path
     style="opacity:1;fill:#afc6e9;fill-rule:evenodd;stroke:#214478;stroke-width:0.64782536000000002;stroke-linecap:butt;stroke-linejoin:miter;stroke-miterlimit:4;stroke-dasharray:none;stroke-opacity:1"
     d="M -0.21943224,16.988656 C 1.9721364,13.733517 1.2719882,9.324507 2.2519018,5.5520918 C 3.6269098,5.3885998 3.0752946,23.001079 3.9985356,23.127667 C 5.0912036,22.861532 3.8690733,11.876349 5.5325333,11.908117 C 6.9845463,11.934607 6.3579933,28.239642 7.2246593,28.241099 C 7.8758603,28.242267 8.3350045,-0.19579802 9.1007905,-0.19579802 C 9.8385235,-0.19579802 9.7468324,23.584886 10.460482,23.584886 C 11.135632,23.584886 11.035174,10.358378 12.061114,10.327638 C 13.251187,10.291984 12.33474,21.076782 13.447656,20.870642 C 14.504688,20.674853 13.954852,15.263972 14.886749,15.347555 C 17.661789,17.247259 18.680677,16.914576 32.388531,16.914576"
     id="path3574"
     sodipodi:nodetypes="cccsssssscc" />
</svg>
