<?xml version="1.0" encoding="UTF-8" standalone="no"?>
<!-- Created with Inkscape (http://www.inkscape.org/) -->
<svg
   xmlns:dc="http://purl.org/dc/elements/1.1/"
   xmlns:cc="http://creativecommons.org/ns#"
   xmlns:rdf="http://www.w3.org/1999/02/22-rdf-syntax-ns#"
   xmlns:svg="http://www.w3.org/2000/svg"
   xmlns="http://www.w3.org/2000/svg"
   xmlns:sodipodi="http://sodipodi.sourceforge.net/DTD/sodipodi-0.dtd"
   xmlns:inkscape="http://www.inkscape.org/namespaces/inkscape"
   id="svg7316"
   sodipodi:version="0.32"
   inkscape:version="0.46"
   width="32"
   height="32"
   version="1.0"
   sodipodi:docname="play.svg"
   inkscape:output_extension="org.inkscape.output.svg.inkscape">
  <metadata
     id="metadata7321">
    <rdf:RDF>
      <cc:Work
         rdf:about="">
        <dc:format>image/svg+xml</dc:format>
        <dc:type
           rdf:resource="http://purl.org/dc/dcmitype/StillImage" />
      </cc:Work>
    </rdf:RDF>
  </metadata>
  <defs
     id="defs7319">
    <inkscape:perspective
       sodipodi:type="inkscape:persp3d"
       inkscape:vp_x="0 : 526.18109 : 1"
       inkscape:vp_y="0 : 1000 : 0"
       inkscape:vp_z="744.09448 : 526.18109 : 1"
       inkscape:persp3d-origin="372.04724 : 350.78739 : 1"
       id="perspective7323" />
  </defs>
  <sodipodi:namedview
     inkscape:window-height="789"
     inkscape:window-width="798"
     inkscape:pageshadow="2"
     inkscape:pageopacity="0.0"
     guidetolerance="10.0"
     gridtolerance="10.0"
     objecttolerance="10.0"
     borderopacity="1.0"
     bordercolor="#666666"
     pagecolor="#ffffff"
     id="base"
     showgrid="false"
     inkscape:zoom="11.59375"
     inkscape:cx="17.478132"
     inkscape:cy="10.474738"
     inkscape:window-x="742"
     inkscape:window-y="110"
     inkscape:current-layer="svg7316" />
  <path
     style="fill:#161650;fill-rule:evenodd;stroke:#161650;stroke-width:2.25064731000000018;stroke-linecap:butt;stroke-linejoin:miter;stroke-miterlimit:4;stroke-dasharray:none;stroke-opacity:1"
     d="M 5.2499979,3.1120335 C 5.2499979,3.1120335 6.2571079,11.64508 6.2781201,15.806327 C 6.2999879,20.137022 5.4858127,29.262485 5.4858127,29.262485 C 5.4858127,29.262485 11.625965,23.81767 15.056367,21.66409 C 18.385129,19.574319 27.145505,16.56555 27.145505,16.56555 C 27.145505,16.56555 18.364809,13.669525 15.000394,11.547031 C 11.618392,9.4134417 5.2499979,3.1120335 5.2499979,3.1120335 z"
     id="path7392"
     sodipodi:nodetypes="cscscsc" />
  <path
     style="fill:#aaccff;fill-rule:evenodd;stroke:#214478;stroke-width:0.64782536000000002;stroke-linecap:butt;stroke-linejoin:miter;stroke-miterlimit:4;stroke-dasharray:none;stroke-opacity:1;opacity:1"
     d="M 0.21700434,16.743054 C 0.21700434,16.743054 5.6443706,16.748208 6.112356,16.759037 C 13.878547,16.759037 13.537421,14.32676 14.483278,13.265115 C 15.593489,13.364693 15.766898,23.611219 16.781185,23.666775 C 18.519396,23.761976 17.5353,2.3637179 18.18884,2.3662763 C 19.488367,2.371365 19.58113,26.743961 20.30425,26.991711 C 21.555605,27.420437 20.821586,15.052636 21.816698,14.606466 C 22.447581,14.3236 22.382832,18.314898 22.895939,18.314898 C 23.614651,18.314898 24.058994,11.186955 24.695543,11.186955 C 25.504617,11.186955 26.116644,29.829973 26.913363,29.829973 C 27.537131,29.829973 27.848408,10.199498 28.620487,10.199498 C 29.515046,10.199498 29.745418,22.635611 30.749389,21.966359 C 31.691898,21.171738 31.30952,16.334793 32.692516,16.501087"
     id="path3574"
     sodipodi:nodetypes="cccsssssssscc" />
</svg>
