<?xml version="1.0" encoding="UTF-8" standalone="no"?>
<!-- Created with Inkscape (http://www.inkscape.org/) -->
<svg
   xmlns:dc="http://purl.org/dc/elements/1.1/"
   xmlns:cc="http://creativecommons.org/ns#"
   xmlns:rdf="http://www.w3.org/1999/02/22-rdf-syntax-ns#"
   xmlns:svg="http://www.w3.org/2000/svg"
   xmlns="http://www.w3.org/2000/svg"
   xmlns:sodipodi="http://sodipodi.sourceforge.net/DTD/sodipodi-0.dtd"
   xmlns:inkscape="http://www.inkscape.org/namespaces/inkscape"
   version="1.0"
   width="32"
   height="32"
   id="svg2474"
   sodipodi:version="0.32"
   inkscape:version="0.46"
   sodipodi:docname="freePlay.svg"
   inkscape:output_extension="org.inkscape.output.svg.inkscape">
  <metadata
     id="metadata9">
    <rdf:RDF>
      <cc:Work
         rdf:about="">
        <dc:format>image/svg+xml</dc:format>
        <dc:type
           rdf:resource="http://purl.org/dc/dcmitype/StillImage" />
      </cc:Work>
    </rdf:RDF>
  </metadata>
  <sodipodi:namedview
     inkscape:window-height="942"
     inkscape:window-width="1292"
     inkscape:pageshadow="2"
     inkscape:pageopacity="0.0"
     guidetolerance="10.0"
     gridtolerance="10.0"
     objecttolerance="10.0"
     borderopacity="1.0"
     bordercolor="#666666"
     pagecolor="#ffffff"
     id="base"
     showgrid="false"
     inkscape:zoom="1.3755437"
     inkscape:cx="15.768908"
     inkscape:cy="17.97686"
     inkscape:window-x="202"
     inkscape:window-y="22"
     inkscape:current-layer="svg2474"
     showguides="true"
     inkscape:guide-bbox="true" />
  <defs
     id="defs2477">
    <inkscape:perspective
       sodipodi:type="inkscape:persp3d"
       inkscape:vp_x="0 : 16 : 1"
       inkscape:vp_y="0 : 1000 : 0"
       inkscape:vp_z="32 : 16 : 1"
       inkscape:persp3d-origin="16 : 10.666667 : 1"
       id="perspective11" />
  </defs>
  <g
     id="g7092"
     transform="matrix(0.6050542,0,0,0.6050542,12.949667,12.529939)">
    <path
       sodipodi:nodetypes="ccccc"
       id="path3699"
       d="M -0.099583507,32.825669 L 8.3492221,8.8454626 L 15.724196,14.598924 L 23.000147,16.205098 L 32.071895,-0.55404399"
       style="fill:none;fill-rule:evenodd;stroke:#666666;stroke-width:0.61809266;stroke-linecap:butt;stroke-linejoin:miter;stroke-miterlimit:4;stroke-dasharray:none;stroke-opacity:1" />
    <path
       sodipodi:nodetypes="ccccc"
       id="path3707"
       d="M -0.085640558,32.910516 L 9.1264814,16.398245 L 16.097811,20.912396 L 25.143948,23.407052 L 32.122907,-0.41027504"
       style="fill:none;fill-rule:evenodd;stroke:#666666;stroke-width:0.61809266;stroke-linecap:butt;stroke-linejoin:miter;stroke-miterlimit:4;stroke-dasharray:none;stroke-opacity:1" />
    <path
       sodipodi:nodetypes="ccccc"
       id="path3697"
       d="M -0.050967971,32.721284 L 7.6005652,4.7379299 L 15.467472,11.590527 L 21.919524,12.717883 L 32.013215,-0.63804426"
       style="fill:none;fill-rule:evenodd;stroke:#666666;stroke-width:0.61809266;stroke-linecap:butt;stroke-linejoin:miter;stroke-miterlimit:4;stroke-dasharray:none;stroke-opacity:1" />
    <path
       sodipodi:nodetypes="ccccc"
       id="path3703"
       d="M -0.26556749,32.860459 L 9.3610929,19.773839 L 16.038124,24.369663 L 25.822888,27.348208 L 31.954531,-0.30204523"
       style="fill:none;fill-rule:evenodd;stroke:#666666;stroke-width:0.61809266;stroke-linecap:butt;stroke-linejoin:miter;stroke-miterlimit:4;stroke-dasharray:none;stroke-opacity:1" />
    <path
       sodipodi:nodetypes="ccccc"
       id="path3711"
       d="M -0.085640679,32.910516 L 8.7945108,12.953244 L 15.848832,17.586182 L 23.982061,19.486872 L 31.912476,-0.22786329"
       style="fill:none;fill-rule:evenodd;stroke:#666666;stroke-width:0.61809266;stroke-linecap:butt;stroke-linejoin:miter;stroke-miterlimit:4;stroke-dasharray:none;stroke-opacity:1" />
    <path
       sodipodi:nodetypes="ccccccccc"
       id="rect6444"
       d="M 8.9937537,13.873833 L 18.818749,13.891227 L 19.011111,13.085917 L 21.661906,13.088638 L 21.89242,13.896669 L 24.822476,13.901855 L 21.741087,28.217714 L 5.9123678,28.189693 L 8.9937537,13.873833 z"
       style="fill:#ffcc00;fill-opacity:1;fill-rule:nonzero;stroke:#2b2200;stroke-width:0.16911168;stroke-miterlimit:4;stroke-dasharray:none;stroke-dashoffset:0;stroke-opacity:1" />
    <path
       sodipodi:nodetypes="ccccc"
       id="rect6451"
       d="M 9.8315187,15.419842 L 23.572528,15.419842 L 21.149561,28.427095 L 6.6143059,28.138278 L 9.8315187,15.419842 z"
       style="fill:#ffffff;fill-opacity:1;fill-rule:nonzero;stroke:#000000;stroke-width:0.10146699;stroke-miterlimit:4;stroke-dasharray:none;stroke-dashoffset:0;stroke-opacity:1" />
    <rect
       y="16.831604"
       x="5.999414"
       height="11.525784"
       width="15.828744"
       id="rect6442"
       style="fill:#ffdd55;fill-opacity:1;fill-rule:nonzero;stroke:#241f1c;stroke-width:0.16911168;stroke-miterlimit:4;stroke-dasharray:none;stroke-dashoffset:0;stroke-opacity:1" />
    <path
       sodipodi:nodetypes="ccz"
       id="path6402"
       d="M 21.949578,11.230424 C 16.933056,9.8715906 13.493701,3.3738122 13.493701,3.3738122 L 13.591494,22.24933"
       style="fill:none;fill-rule:evenodd;stroke:#000000;stroke-width:1.39401901px;stroke-linecap:butt;stroke-linejoin:miter;stroke-opacity:1" />
    <path
       sodipodi:nodetypes="cc"
       id="path6983"
       d="M 11.763011,22.480951 L 15.847483,22.480951"
       style="fill:none;fill-rule:evenodd;stroke:#000000;stroke-width:0.63564605;stroke-linecap:butt;stroke-linejoin:miter;stroke-miterlimit:4;stroke-dasharray:none;stroke-opacity:1" />
  </g>
  <path
     style="fill:#ff2a2a;fill-rule:evenodd;stroke:#ff2a2a;stroke-width:0.22842984;stroke-linecap:butt;stroke-linejoin:miter;stroke-miterlimit:4;stroke-dasharray:none;stroke-opacity:1"
     d="M 0.035583427,9.4521664 L 22.531448,9.4521664"
     id="path2715"
     sodipodi:nodetypes="cc" />
  <path
     style="fill:none;fill-rule:evenodd;stroke:#000000;stroke-width:0.41355976;stroke-linecap:butt;stroke-linejoin:miter;stroke-miterlimit:4;stroke-dasharray:none;stroke-opacity:1"
     d="M 0.02223323,9.4430091 C 0.02223323,9.4430091 0.19816359,9.4459646 0.53069144,9.4521738 C 0.90005304,9.4399194 0.82469852,8.390302 1.2616838,8.1998567 C 2.2386993,8.1060868 1.523897,10.962957 2.567328,10.931321 C 3.3437265,10.778685 2.6044792,6.5630102 3.7864538,6.5812291 C 4.8181853,6.5964243 4.3729867,13.654774 4.9887983,13.655608 C 5.4515102,13.656279 5.7131851,8.0824949 6.257317,8.0824949 C 6.781514,8.0824949 6.3289441,17.812733 6.8360284,17.812733 C 7.3157569,17.812733 7.6963659,5.6923906 8.4253522,5.6747599 C 9.27096,5.6543086 8.4906368,15.800919 9.2814231,15.682688 C 10.032497,15.570394 9.7709508,8.5059491 10.433112,8.5538889 C 11.221975,8.6110013 11.071244,11.834314 11.79195,11.866177 C 13.027037,11.920781 12.327786,1.1958677 12.792159,1.1973351 C 13.715543,1.2002531 13.598823,13.041405 14.11264,13.183499 C 15.001791,13.42939 14.662862,8.4734851 15.369943,8.217587 C 15.818217,8.055353 16.032232,10.344524 16.1368,10.344524 C 16.647482,10.344524 17.266568,6.2563568 17.415511,6.2563568 C 17.990402,6.2563568 18.961568,11.576296 19.094311,11.576296 C 19.537531,11.576296 19.600844,8.1592315 19.976099,8.1592315 C 20.351711,8.1592315 20.33078,10.346458 21.044154,9.9626108 C 21.713854,9.5068654 22.401394,9.2473266 22.523486,9.5222654"
     id="path3574"
     sodipodi:nodetypes="ccccssssssssssssssscc" />
  <path
     style="fill:none;fill-rule:evenodd;stroke:#000000;stroke-width:0.2;stroke-linecap:butt;stroke-linejoin:miter;stroke-opacity:1;stroke-miterlimit:4;stroke-dasharray:none"
     d="M -0.045436579,32 L 31.941915,0.058084669"
     id="path7104" />
</svg>
