<?xml version="1.0" encoding="UTF-8" standalone="no"?>
<!-- Created with Inkscape (http://www.inkscape.org/) -->
<svg
   xmlns:dc="http://purl.org/dc/elements/1.1/"
   xmlns:cc="http://creativecommons.org/ns#"
   xmlns:rdf="http://www.w3.org/1999/02/22-rdf-syntax-ns#"
   xmlns:svg="http://www.w3.org/2000/svg"
   xmlns="http://www.w3.org/2000/svg"
   xmlns:xlink="http://www.w3.org/1999/xlink"
   xmlns:sodipodi="http://sodipodi.sourceforge.net/DTD/sodipodi-0.dtd"
   xmlns:inkscape="http://www.inkscape.org/namespaces/inkscape"
   id="svg7316"
   sodipodi:version="0.32"
   inkscape:version="0.46"
   width="32"
   height="32"
   version="1.0"
   sodipodi:docname="help.svg"
   inkscape:output_extension="org.inkscape.output.svg.inkscape">
  <metadata
     id="metadata7321">
    <rdf:RDF>
      <cc:Work
         rdf:about="">
        <dc:format>image/svg+xml</dc:format>
        <dc:type
           rdf:resource="http://purl.org/dc/dcmitype/StillImage" />
      </cc:Work>
    </rdf:RDF>
  </metadata>
  <defs
     id="defs7319">
    <linearGradient
       id="linearGradient8828">
      <stop
         style="stop-color:#9dcbda;stop-opacity:0.95081967;"
         offset="0"
         id="stop8830" />
      <stop
         style="stop-color:#a3d1da;stop-opacity:0;"
         offset="1"
         id="stop8832" />
    </linearGradient>
    <inkscape:perspective
       sodipodi:type="inkscape:persp3d"
       inkscape:vp_x="0 : 526.18109 : 1"
       inkscape:vp_y="0 : 1000 : 0"
       inkscape:vp_z="744.09448 : 526.18109 : 1"
       inkscape:persp3d-origin="372.04724 : 350.78739 : 1"
       id="perspective7323" />
    <radialGradient
       inkscape:collect="always"
       xlink:href="#linearGradient8828"
       id="radialGradient8836"
       cx="-1.6789531e-14"
       cy="22.718292"
       fx="-1.6789531e-14"
       fy="22.718292"
       r="11.292284"
       gradientUnits="userSpaceOnUse"
       gradientTransform="matrix(1.9687057,1.1491093e-8,-1.1231132e-8,1.924168,2.5515214e-7,-20.995519)" />
  </defs>
  <sodipodi:namedview
     inkscape:window-height="789"
     inkscape:window-width="798"
     inkscape:pageshadow="2"
     inkscape:pageopacity="0.0"
     guidetolerance="10.0"
     gridtolerance="10.0"
     objecttolerance="10.0"
     borderopacity="1.0"
     bordercolor="#666666"
     pagecolor="#ffffff"
     id="base"
     showgrid="false"
     inkscape:zoom="2.7510873"
     inkscape:cx="12.247061"
     inkscape:cy="21.364656"
     inkscape:window-x="436"
     inkscape:window-y="126"
     inkscape:current-layer="svg7316" />
  <rect
     style="opacity:1;fill:url(#radialGradient8836);fill-opacity:1;fill-rule:nonzero;stroke:#161650;stroke-width:1.24534368999999989;stroke-miterlimit:4;stroke-dasharray:none;stroke-dashoffset:0;stroke-opacity:1"
     id="rect8822"
     width="21.339224"
     height="21.339224"
     x="-10.669612"
     y="12.04868"
     transform="matrix(0.7071068,-0.7071068,0.7071068,0.7071068,0,0)" />
  <path
     style="font-size:24.80921936px;font-style:normal;font-weight:normal;fill:#002255;fill-opacity:1;stroke:none;stroke-width:1px;stroke-linecap:butt;stroke-linejoin:miter;stroke-opacity:1;font-family:Bitstream Vera Sans"
     d="M 14.437321,22.625888 L 16.896438,22.625888 L 16.896438,25.702812 L 14.437321,25.702812 L 14.437321,22.625888 M 16.823755,20.845148 L 14.510004,20.845148 L 14.510004,18.979611 C 14.509999,18.163951 14.623062,17.49365 14.849193,16.968707 C 15.075313,16.443782 15.551792,15.834051 16.27863,15.139512 L 17.368879,14.061377 C 17.829198,13.633365 18.160311,13.22957 18.362217,12.849989 C 18.572182,12.470434 18.677169,12.082791 18.677178,11.687057 C 18.677169,10.968315 18.410664,10.386849 17.877662,9.9426587 C 17.35272,9.4984994 16.654153,9.2764119 15.781961,9.2763955 C 15.143958,9.2764119 14.248137,9.6262967 13.670459,10.15018 C 12.437643,11.268194 12.901008,12.258379 12.631703,12.735194 L 10.291051,12.793871 C 10.760082,9.3860875 12.044025,8.5618791 13.783172,7.6289082 C 14.501655,7.2434758 15.374122,7.2897381 16.205947,7.2897197 C 17.691908,7.2897381 18.883104,7.6814197 19.779541,8.4647657 C 20.684032,9.2481462 21.136283,10.281863 21.136295,11.565918 C 21.136283,12.179701 20.990917,12.765205 20.700195,13.32243 C 20.409451,13.871605 19.900669,14.49345 19.173847,15.187967 L 18.107826,16.229761 C 17.728249,16.609338 17.457706,16.908147 17.296196,17.126188 C 17.142746,17.33617 17.033721,17.542105 16.969121,17.743995 C 16.920658,17.913597 16.884317,18.119533 16.860096,18.361803 C 16.835861,18.604088 16.823748,18.9352 16.823755,19.355141 L 16.823755,20.845148"
     id="text8824"
     sodipodi:nodetypes="ccccccccsccsssssccsssssccssscc" />
</svg>
